<?xml version="1.0" standalone="no"?>
<!DOCTYPE svg PUBLIC "-//W3C//DTD SVG 20010904//EN"
 "http://www.w3.org/TR/2001/REC-SVG-20010904/DTD/svg10.dtd">
<svg version="1.0" xmlns="http://www.w3.org/2000/svg"
 width="1024.000000pt" height="1024.000000pt" viewBox="0 0 1024.000000 1024.000000"
 preserveAspectRatio="xMidYMid meet">

<g transform="translate(0.000000,1024.000000) scale(0.100000,-0.100000)"
fill="#000000" stroke="none">
<path d="M4538 9940 c-200 -32 -441 -135 -593 -253 -371 -291 -517 -483 -679
-893 -131 -332 -159 -526 -121 -829 8 -66 15 -156 15 -201 0 -44 7 -104 16
-133 18 -63 27 -64 13 -1 -7 29 -7 133 0 304 5 144 8 263 6 264 -2 2 -6 -23
-10 -55 -11 -98 -20 -93 -23 12 -7 226 51 472 182 778 114 265 229 417 471
625 198 169 340 254 533 316 180 58 348 65 470 20 36 -13 48 -14 73 -4 61 26
268 -8 490 -79 154 -50 295 -144 522 -349 224 -202 350 -389 447 -662 42 -117
153 -587 152 -638 -1 -18 9 -67 22 -110 36 -115 53 -200 81 -385 31 -205 31
-210 5 -177 -26 33 -25 24 4 -42 13 -30 45 -119 71 -199 26 -79 67 -204 92
-278 24 -73 42 -138 41 -142 -2 -5 -25 50 -52 123 -27 73 -107 247 -178 387
-141 279 -132 272 -109 81 7 -51 9 -57 10 -25 2 37 3 39 16 21 25 -33 74 -203
86 -299 7 -57 9 -145 5 -231 -7 -144 -17 -190 -26 -121 -3 22 -5 -34 -4 -125
1 -170 23 -387 34 -340 8 31 30 -130 30 -216 0 -109 -17 -92 -22 22 -4 93 -10
125 -42 214 -20 58 -45 136 -56 173 -29 102 -75 375 -72 432 9 205 5 463 -11
585 -9 74 -16 169 -16 210 1 41 -6 109 -15 150 -9 41 -16 84 -16 95 1 26 46
-79 96 -220 23 -66 40 -101 42 -89 6 39 -58 424 -98 594 -21 91 -46 201 -56
245 -20 94 -93 329 -100 322 -3 -3 8 -43 24 -88 34 -96 77 -278 68 -286 -3 -4
-11 9 -18 28 -37 107 -279 549 -300 549 -17 0 -6 -25 45 -108 185 -302 301
-590 357 -895 18 -93 29 -171 27 -174 -3 -2 -21 44 -40 104 -86 264 -173 423
-405 732 -257 344 -362 500 -492 730 -49 87 -165 251 -177 251 -3 0 11 -21 31
-47 55 -74 114 -173 211 -353 97 -182 174 -298 355 -530 218 -280 331 -464
370 -602 27 -99 60 -324 60 -410 0 -38 7 -109 16 -159 8 -49 14 -95 12 -100
-2 -6 -21 30 -42 78 -22 48 -63 140 -91 203 -29 63 -60 134 -70 158 -26 61
-29 46 -4 -24 39 -113 48 -192 50 -440 2 -382 -11 -839 -27 -937 -8 -48 -14
-102 -14 -120 0 -75 -16 -42 -26 55 -7 56 -22 182 -34 278 -17 142 -20 201
-15 310 4 74 5 133 2 130 -4 -3 -11 -48 -18 -100 -10 -86 -71 -355 -82 -367
-3 -2 -3 13 0 34 7 50 -13 296 -31 393 -8 41 -19 120 -25 175 -29 270 -42 394
-56 551 -24 277 -76 530 -162 784 -111 328 -271 638 -433 835 -51 62 -182 195
-192 195 -2 0 37 -42 87 -93 85 -88 192 -229 262 -342 48 -79 152 -308 200
-440 61 -168 164 -698 162 -833 -1 -103 -9 -93 -154 193 -77 151 -140 275
-142 275 -13 0 123 -331 157 -380 25 -37 32 -50 27 -50 -5 0 -99 127 -154 206
-37 54 -149 259 -191 351 -53 114 -83 194 -143 376 -71 216 -164 447 -208 514
-21 32 -59 81 -86 108 -39 41 -41 42 -10 7 46 -55 116 -165 138 -217 68 -164
124 -338 163 -500 59 -246 68 -278 121 -414 24 -63 41 -121 38 -129 -3 -7 6
-57 20 -110 13 -53 36 -160 50 -237 108 -588 177 -820 337 -1140 111 -222 113
-228 113 -415 0 -154 -2 -171 -28 -255 -16 -49 -33 -94 -39 -100 -7 -7 -8 -4
-5 10 41 142 34 363 -17 545 -54 194 -130 415 -180 524 -66 142 -212 411 -261
481 -48 68 -89 157 -170 365 -30 80 -65 167 -75 194 -11 27 -35 108 -53 180
l-32 131 -3 -80 c-7 -172 51 -491 138 -759 18 -57 -9 -11 -35 59 -117 312
-204 746 -206 1026 l-1 134 -13 -75 c-53 -290 -200 -566 -418 -788 -78 -79
-153 -140 -161 -131 -3 2 27 54 66 114 78 123 290 545 274 545 -2 0 -23 -33
-47 -72 -23 -40 -77 -125 -120 -190 -78 -116 -78 -116 -129 -127 -28 -6 -53
-11 -55 -11 -3 0 16 31 40 70 25 38 67 118 94 177 52 117 134 333 128 339 -2
2 -39 -79 -82 -181 -77 -183 -135 -290 -202 -372 -19 -24 -41 -43 -49 -43 -8
0 -13 4 -10 9 3 4 14 87 25 182 11 105 27 198 40 234 28 81 25 94 -5 20 l-24
-60 6 60 c8 80 66 376 99 506 29 114 109 357 132 402 8 16 12 31 9 34 -14 14
-102 -228 -150 -408 -82 -313 -127 -566 -131 -755 -3 -96 -9 -154 -20 -185
-10 -28 -19 -107 -26 -224 -5 -98 -14 -182 -19 -185 -5 -3 0 -82 15 -195 13
-105 26 -226 30 -270 4 -44 38 -237 76 -430 95 -475 112 -591 113 -760 0 -107
-4 -155 -18 -205 -23 -83 -150 -339 -162 -328 -2 2 8 39 21 82 48 148 64 337
46 516 -7 69 -12 62 -26 -40 -10 -65 -61 -205 -101 -278 -20 -35 -37 -62 -39
-60 -2 2 8 37 21 77 38 116 48 200 48 416 1 275 -33 492 -153 985 -55 225 -68
248 -21 35 17 -74 46 -226 65 -337 20 -112 44 -243 56 -293 14 -64 21 -138 24
-255 2 -91 2 -154 -1 -140 -2 14 -11 70 -20 125 -46 294 -77 413 -179 685 -67
177 -99 280 -150 475 -64 244 -84 357 -97 553 -13 193 -1 512 28 701 16 108
13 147 -4 64 -32 -149 -72 -585 -72 -790 l0 -133 -25 0 c-21 0 -27 7 -39 53
-29 100 -46 231 -47 366 l-2 136 -9 -90 c-4 -49 -15 -155 -23 -235 -8 -80 -15
-160 -15 -177 0 -18 -4 -33 -9 -33 -4 0 -10 87 -13 193 -4 170 -7 197 -25 232
-20 38 -21 39 -26 15 -13 -61 -15 -155 -7 -373 8 -226 8 -235 -15 -322 -21
-81 -24 -88 -33 -64 -6 14 -18 77 -27 140 -23 154 -16 403 15 539 23 98 31
144 50 266 9 58 39 158 84 279 4 11 0 7 -10 -10 -55 -96 -120 -336 -169 -633
-45 -269 -45 -334 -1 -537 9 -38 20 -98 26 -132 6 -34 13 -70 17 -80 4 -12 3
-15 -5 -8 -13 13 -44 120 -77 270 -24 108 -44 169 -45 139 0 -11 51 -285 65
-349 6 -28 5 -29 -9 -11 -8 10 -25 49 -38 85 -20 59 -22 87 -22 256 -1 186 0
193 37 346 40 167 41 179 29 179 -5 0 -14 -30 -21 -67 -24 -131 -30 -158 -39
-183 -17 -45 -25 61 -19 245 6 155 27 300 63 425 14 50 -5 13 -41 -80 -20 -52
-38 -119 -41 -149 -2 -30 -13 -101 -24 -158 -22 -113 -26 -168 -11 -144 6 10
11 -5 16 -45 3 -32 13 -104 21 -159 11 -79 11 -120 3 -195 -19 -170 10 -311
86 -413 24 -31 51 -81 59 -110 18 -61 58 -127 111 -180 l38 -39 -31 -76 c-16
-43 -42 -104 -56 -137 -22 -52 -26 -74 -26 -169 l0 -108 -70 -95 c-38 -52 -75
-113 -82 -136 -8 -24 -12 -85 -11 -143 l2 -101 -39 -12 c-20 -6 -43 -18 -50
-26 -7 -8 -16 -15 -19 -15 -11 0 -30 132 -41 270 -10 139 -14 155 -93 321 -79
167 -123 197 -213 144 -46 -27 -55 -45 -74 -150 -27 -151 -30 -204 -15 -347 7
-79 17 -197 21 -262 l7 -119 -74 6 c-41 3 -112 11 -159 17 -147 19 -265 -3
-385 -73 -188 -108 -297 -204 -341 -301 l-25 -54 -82 -4 c-108 -4 -163 -31
-223 -107 -41 -51 -131 -221 -149 -281 -4 -14 -43 -115 -87 -225 -62 -154 -91
-247 -130 -405 -27 -113 -72 -283 -99 -379 -52 -185 -57 -216 -35 -246 9 -13
11 -27 5 -42 -5 -13 -23 -85 -40 -160 -17 -76 -66 -246 -109 -378 -63 -197
-82 -271 -105 -415 -22 -138 -33 -181 -50 -202 -15 -17 -25 -47 -29 -86 -13
-118 -85 -460 -104 -498 -11 -22 -46 -106 -77 -189 -32 -82 -95 -225 -141
-317 -101 -201 -107 -248 -33 -248 23 0 33 9 57 53 17 28 45 88 62 132 31 77
59 124 47 80 -3 -11 -29 -139 -57 -285 -28 -146 -65 -326 -82 -400 -38 -168
-36 -236 10 -334 40 -86 82 -141 200 -259 103 -104 171 -147 231 -147 72 -1
150 -27 190 -63 49 -44 117 -67 233 -77 64 -5 112 -16 156 -34 50 -22 75 -26
125 -24 l62 3 -69 13 c-73 14 -133 40 -156 67 -8 10 -14 51 -16 118 -2 56 -8
150 -15 209 -10 97 -10 421 1 431 3 2 33 0 67 -6 53 -9 65 -8 87 7 l27 17 0
402 c0 221 3 440 6 486 3 53 1 97 -7 121 -10 30 -9 60 9 176 32 217 49 399 61
654 9 203 27 371 46 433 7 22 9 22 145 -8 143 -31 168 -42 175 -71 6 -23 -9
-296 -41 -749 -23 -318 -46 -1214 -39 -1490 7 -273 0 -351 -47 -483 -16 -48
-43 -123 -59 -168 -37 -109 -45 -121 -88 -143 l-37 -20 157 -1 c86 0 159 4
162 9 3 4 25 11 48 15 24 4 143 33 265 66 122 33 238 60 258 60 l35 0 -35 -70
c-40 -79 -40 -80 -20 -80 20 0 59 70 123 219 69 162 74 203 36 315 -33 102
-38 91 88 236 85 99 127 165 113 178 -3 4 -10 0 -15 -8 -21 -38 -106 -149
-112 -150 -5 0 -8 64 -8 143 0 132 -14 262 -51 474 l-13 72 40 43 c22 24 46
59 54 78 7 19 37 69 66 110 52 76 153 241 234 382 24 43 45 77 46 75 3 -2 -28
-594 -51 -970 -19 -314 -19 -391 -1 -406 22 -18 108 -41 157 -41 l46 0 6 66 5
65 149 152 c164 168 270 284 444 487 138 162 430 525 496 618 88 123 173 233
173 223 0 -19 -31 -159 -85 -386 -30 -126 -65 -277 -78 -335 l-22 -105 -101
-80 c-56 -44 -198 -156 -315 -250 -248 -196 -479 -392 -479 -406 0 -13 68 34
159 111 41 35 212 173 379 307 220 176 309 242 321 237 14 -6 300 -32 369 -33
22 -1 20 -6 -31 -78 -201 -289 -568 -853 -554 -853 6 0 179 248 245 350 23 36
74 116 114 177 40 62 93 145 118 184 25 40 66 105 91 144 l46 72 413 6 c228 4
415 6 416 4 2 -2 -22 -34 -52 -71 -31 -37 -55 -69 -52 -71 2 -2 30 29 63 69
l60 74 175 6 c96 4 258 14 358 22 101 9 186 14 187 12 4 -4 -184 -324 -457
-778 -152 -254 -182 -302 -347 -564 -40 -64 -71 -120 -67 -123 3 -3 7 -4 9 -2
63 84 285 441 477 769 41 69 115 195 165 280 50 85 127 216 170 291 l79 136
105 16 c58 9 106 15 107 14 0 -1 -64 -119 -143 -262 -80 -143 -202 -371 -273
-507 -71 -136 -148 -274 -172 -305 -25 -32 -60 -80 -78 -108 -19 -27 -81 -111
-138 -185 -65 -85 -99 -136 -91 -139 7 -2 20 7 28 20 9 13 34 46 57 74 22 27
71 90 107 138 37 48 67 85 67 82 0 -3 -11 -28 -25 -55 -35 -69 -67 -152 -56
-146 13 8 87 148 226 426 65 129 183 357 263 505 80 149 167 313 195 365 27
52 53 99 57 103 9 10 124 11 212 2 l63 -7 28 89 c59 184 67 213 117 408 124
490 138 729 55 967 -23 66 -140 299 -190 378 -12 19 -46 76 -75 125 -101 173
-228 374 -261 412 -15 17 -33 49 -39 70 -7 21 -40 92 -72 158 -72 145 -98 229
-138 435 -35 183 -53 239 -119 376 -41 83 -61 111 -118 165 -67 63 -163 119
-229 133 -17 4 -48 25 -70 48 -54 56 -105 78 -186 78 -113 0 -218 19 -284 51
-46 23 -81 32 -140 36 -70 6 -82 10 -108 35 l-29 29 7 97 c7 94 55 312 79 355
34 61 46 67 130 67 101 0 132 15 223 105 39 38 130 124 203 190 72 66 164 160
204 209 l72 89 23 -74 c30 -95 40 -279 23 -400 -14 -93 -47 -184 -87 -236 -14
-19 -24 -36 -21 -39 6 -7 77 73 131 149 70 99 88 152 93 282 4 90 11 127 38
205 18 52 35 94 39 93 4 -1 31 -32 60 -67 l53 -65 7 -98 c7 -114 -6 -266 -34
-372 -24 -94 -5 -77 38 34 64 168 92 327 92 529 l0 119 80 -157 c83 -164 123
-228 161 -261 l23 -20 -23 35 c-44 68 -70 136 -85 225 -18 107 -25 215 -15
215 5 0 27 -60 49 -132 23 -73 61 -196 86 -273 24 -77 47 -162 50 -190 8 -66
-10 -168 -39 -227 l-23 -47 26 19 c41 29 80 92 96 156 14 52 14 73 -1 208 -8
83 -23 198 -32 256 -21 128 -21 162 -4 314 13 112 11 307 -5 421 -4 32 9 12
61 -95 56 -114 65 -140 60 -169 -6 -30 -4 -33 8 -23 12 10 18 4 35 -40 54
-135 66 -205 67 -375 0 -181 10 -181 26 0 16 173 9 240 -41 391 l-42 129 21
106 c26 131 26 219 1 336 -26 122 -44 171 -140 375 -100 212 -104 225 -129
353 -126 643 -265 959 -535 1214 -152 144 -347 293 -486 371 -117 66 -434 138
-571 130 -48 -3 -100 0 -130 8 -68 18 -202 25 -271 14z m402 -1510 c6 -41 23
-126 36 -189 13 -63 22 -116 20 -119 -3 -2 -44 5 -93 16 -48 11 -107 23 -129
27 l-42 6 35 57 c41 69 143 277 143 295 1 31 19 -25 30 -93z m660 -325 c57
-88 124 -187 148 -220 51 -70 128 -222 118 -232 -9 -10 -89 70 -147 148 -57
77 -177 277 -218 364 -30 62 -91 231 -91 250 0 5 20 -26 43 -70 24 -44 90
-152 147 -240z m-427 -113 c37 -114 85 -242 108 -286 22 -43 38 -80 36 -82 -7
-8 -77 97 -115 172 -50 100 -77 185 -97 298 -17 102 -18 106 -7 106 4 0 37
-94 75 -208z m315 108 c23 -38 42 -76 42 -84 0 -13 -37 -33 -44 -24 -2 1 -11
37 -21 78 -9 41 -20 81 -22 87 -12 32 7 7 45 -57z m-623 30 c103 -24 141 -42
148 -70 4 -17 2 -20 -11 -15 -67 27 -160 55 -217 64 -73 11 -80 14 -70 30 9
16 54 13 150 -9z m-445 -73 c-17 -24 -60 -72 -95 -107 -60 -60 -65 -63 -65
-38 0 14 18 57 40 94 41 71 70 93 123 94 l28 0 -31 -43z m445 -2 c173 -45 168
-42 188 -110 108 -352 158 -466 281 -632 136 -185 158 -214 163 -209 3 3 -8
22 -24 43 -96 123 -209 345 -272 538 -11 33 -19 61 -17 62 1 1 22 -25 46 -60
24 -34 74 -98 110 -142 37 -44 84 -114 106 -155 22 -41 80 -147 129 -235 103
-186 152 -289 190 -400 l28 -80 -36 -55 c-78 -119 -466 -503 -553 -548 -69
-35 -121 -38 -185 -11 -64 27 -172 90 -286 166 -80 53 -143 81 -143 63 0 -12
84 -75 232 -173 138 -92 141 -97 114 -191 -18 -61 -27 -67 -109 -68 -61 -1
-140 18 -263 64 l-89 33 0 85 c1 47 8 114 18 150 9 36 19 82 22 102 5 29 9 36
23 32 15 -5 16 -4 1 8 -12 9 -18 40 -23 108 -9 123 -36 246 -82 373 -98 279
-115 329 -137 417 -30 118 -44 199 -53 314 l-7 88 29 -6 c18 -4 44 -1 67 9 47
19 47 19 47 -7 0 -13 9 -43 20 -67 l20 -43 -27 17 c-16 10 -37 24 -48 32 -11
7 -31 13 -44 13 l-25 0 22 -16 c17 -12 20 -19 12 -29 -8 -9 -3 -14 21 -19 16
-3 28 -10 24 -15 -3 -5 7 -11 22 -13 16 -2 26 -7 23 -13 -8 -17 68 -21 205
-12 129 8 244 5 278 -8 9 -4 17 -3 17 2 0 17 -74 33 -148 33 l-71 0 24 36 c30
44 31 54 5 54 -11 0 -20 -6 -20 -13 0 -7 -13 -25 -28 -40 -24 -23 -37 -27 -85
-27 -69 0 -117 18 -140 53 -25 38 -21 54 14 61 51 10 67 7 74 -13 9 -29 43
-36 66 -15 10 9 19 23 19 31 0 16 76 16 97 1 19 -15 33 0 33 33 0 27 2 29 28
23 40 -10 90 -37 151 -83 30 -23 58 -41 63 -41 10 0 -17 56 -32 65 -18 11 -11
25 13 25 21 1 21 1 2 12 -73 39 -112 78 -59 58 14 -6 35 -10 47 -10 27 1 -38
27 -98 40 -22 5 -67 16 -100 25 -45 13 -100 17 -224 16 -91 -1 -167 -3 -169
-6 -3 -2 6 -9 19 -14 l24 -9 -26 -7 c-14 -3 -41 -5 -59 -3 -33 3 -33 3 59 71
106 79 228 191 262 243 24 35 24 35 79 29 30 -4 96 -17 145 -30z m839 -295
c63 -91 113 -166 113 -167 -1 -1 -23 4 -49 9 -46 11 -148 2 -189 -16 -13 -5
-18 0 -23 24 -8 42 -3 48 58 76 39 18 45 24 26 24 -14 0 -40 -9 -59 -21 -18
-11 -35 -19 -36 -17 -2 2 -13 57 -24 122 -24 132 -22 138 36 134 30 -3 42 -17
147 -168z m951 23 c108 -224 142 -359 133 -537 -8 -149 -18 -158 -56 -49 -41
114 -77 276 -97 433 -9 69 -22 158 -29 198 -7 39 -11 72 -10 72 1 0 28 -53 59
-117z m-2992 1 c18 -9 51 -30 73 -46 38 -27 43 -35 49 -86 9 -81 43 -228 64
-287 10 -27 21 -71 25 -97 4 -25 29 -100 56 -166 28 -66 50 -124 50 -129 0
-11 -148 1 -181 14 -57 25 -264 283 -303 378 -31 77 -39 160 -26 259 11 90 35
136 83 160 41 20 70 20 110 0z m621 -60 c25 -9 19 -24 -9 -24 -16 0 -25 6 -25
15 0 16 9 19 34 9z m2054 -224 c42 -121 80 -265 87 -335 6 -58 -13 -242 -37
-345 -5 -25 -13 -97 -17 -160 -7 -109 -7 -113 -19 -75 -32 112 -44 230 -38
375 5 108 2 203 -14 375 -11 127 -20 241 -20 255 0 43 25 3 58 -90z m-505 4
c18 -9 40 -23 50 -32 17 -15 23 -65 11 -97 -10 -25 -59 -45 -114 -45 l-51 0
16 30 c21 40 19 60 -5 60 -11 0 -20 -7 -20 -15 0 -45 -80 -73 -100 -36 -12 24
-13 54 -2 47 13 -8 52 23 52 40 0 17 30 18 64 3 31 -15 56 2 56 37 0 28 2 29
43 8z m124 -211 c10 -90 9 -113 -3 -143 -9 -19 -26 -87 -39 -151 -23 -114 -51
-199 -64 -199 -17 0 -167 345 -205 473 -13 43 -13 47 3 47 9 0 33 -9 54 -19
20 -10 37 -15 37 -10 0 17 65 9 98 -11 39 -24 49 -25 31 -4 -11 13 -9 14 17 8
l29 -7 -20 23 -20 23 22 -12 c33 -17 37 -14 15 16 -18 25 -18 29 -5 50 29 44
39 28 50 -84z m-2377 -123 c44 -54 58 -76 42 -66 -7 4 -12 2 -12 -5 0 -27 -64
49 -90 107 -41 91 -45 115 -9 59 17 -27 48 -70 69 -95z m-25 -185 c-30 -53
-35 -71 -28 -88 9 -20 14 -13 48 55 20 43 41 76 45 73 4 -3 27 -36 50 -75 41
-68 42 -71 24 -85 -18 -14 -18 -14 8 -15 28 0 55 -31 43 -50 -3 -6 -1 -10 4
-10 17 0 13 -92 -6 -151 -14 -44 -35 -72 -106 -146 -49 -51 -93 -90 -98 -87
-4 2 5 27 21 54 16 28 37 65 46 83 l17 32 -28 -25 c-25 -22 -27 -23 -22 -5 3
11 13 47 23 80 19 68 52 118 98 146 37 22 29 25 -18 5 -38 -16 -75 -61 -111
-132 l-24 -49 -2 125 c-1 106 -3 118 -11 80 -5 -25 -7 -89 -6 -142 3 -71 1
-93 -7 -80 -12 20 -14 252 -2 297 7 28 6 28 -10 -5 -23 -48 -27 -149 -10 -253
9 -60 10 -86 3 -84 -24 8 -40 83 -39 182 0 95 2 105 43 200 23 55 46 115 52
134 9 30 11 32 25 18 14 -14 12 -22 -22 -82z m815 -125 c41 -94 75 -199 95
-295 16 -81 20 -175 7 -175 -28 0 -45 50 -82 241 -22 112 -46 229 -55 259 -8
30 -15 57 -15 60 0 14 21 -24 50 -90z m-319 -65 c30 -40 41 -69 59 -150 28
-131 70 -421 70 -485 l0 -51 -62 42 c-35 23 -112 91 -173 151 -99 98 -111 107
-122 92 -7 -10 -13 -25 -13 -33 0 -25 -37 -137 -61 -183 -50 -99 -152 -218
-186 -218 -5 0 -19 24 -31 53 l-23 54 37 39 c53 56 91 144 103 237 9 76 10 78
68 140 33 35 67 81 77 102 l19 39 15 -30 c11 -19 15 -53 15 -101 -1 -40 1 -73
3 -73 25 0 104 348 104 458 l0 56 32 -45 c17 -24 48 -66 69 -94z m1914 -17
c16 -51 33 -98 37 -104 10 -13 -18 -164 -33 -178 -6 -6 -9 -4 -9 7 0 10 -20
68 -45 129 l-45 113 25 53 c14 29 25 57 25 62 0 6 4 10 8 10 5 0 21 -42 37
-92z m155 -29 c7 -39 15 -107 19 -150 l7 -78 -21 19 c-11 10 -31 39 -45 64
-26 49 -27 35 11 179 5 20 11 37 13 37 3 0 10 -32 16 -71z m-2261 16 l0 -20
-9 20 c-5 11 -9 27 -9 35 -1 13 0 13 9 0 5 -8 9 -24 9 -35z m-932 13 c23 -25
92 -174 130 -282 17 -47 27 -106 33 -187 10 -132 20 -199 55 -374 13 -66 31
-169 40 -230 32 -217 75 -361 133 -442 11 -15 56 -101 101 -191 44 -90 93
-179 108 -199 41 -53 127 -119 180 -138 27 -9 100 -41 163 -70 112 -52 188
-76 280 -89 78 -12 126 -39 140 -80 26 -81 -23 -147 -141 -190 -201 -72 -352
-63 -564 32 -69 31 -95 37 -185 43 -69 5 -123 14 -159 28 -81 33 -95 20 -19
-17 37 -17 72 -32 77 -32 6 0 11 -4 11 -9 0 -22 -249 -79 -255 -57 -29 113
-27 109 -91 141 -33 17 -71 35 -84 40 -18 7 -35 35 -64 100 -34 76 -40 103
-44 177 l-4 86 51 37 c58 42 59 65 1 35 -22 -11 -42 -20 -45 -20 -3 0 -5 32
-5 72 0 69 -25 188 -40 188 -4 0 -3 -21 1 -47 4 -27 8 -143 8 -260 1 -132 5
-214 11 -218 30 -18 93 -193 105 -290 9 -70 15 -86 27 -79 7 5 9 34 5 85 -7
88 -5 91 57 65 22 -9 44 -30 61 -61 24 -40 27 -52 21 -97 -4 -28 -12 -60 -17
-71 -14 -25 -61 -43 -134 -52 -33 -4 -82 -16 -108 -26 -26 -11 -61 -19 -77
-19 -42 0 -95 51 -135 129 -18 36 -59 107 -90 156 -87 136 -95 175 -101 495
-3 146 -7 276 -10 289 -5 21 -7 22 -20 9 -12 -12 -13 -23 -3 -64 7 -34 9 -114
4 -255 -9 -291 0 -330 117 -506 29 -43 71 -114 93 -155 l40 -76 -20 -23 c-26
-29 -92 -59 -130 -59 -16 0 -48 9 -70 19 -49 22 -288 250 -320 306 -29 48 -31
66 -45 305 -12 198 -16 230 -28 230 -4 0 -6 -109 -4 -242 4 -232 5 -245 27
-283 24 -41 290 -308 334 -336 l25 -16 -20 -33 c-45 -77 -130 -89 -243 -35
-92 44 -281 168 -346 228 l-50 45 0 273 1 274 26 58 c19 39 37 63 59 75 144
79 177 115 210 229 30 107 63 139 160 154 131 21 165 45 227 164 53 100 61
102 272 95 41 -1 87 2 101 8 l26 10 5 -111 c3 -66 12 -126 20 -147 14 -32 15
-11 13 245 -2 154 -7 294 -12 310 -15 45 -63 518 -63 610 0 44 46 261 65 306
16 40 91 50 122 17z m545 -289 c10 -41 24 -84 30 -97 8 -16 9 -26 2 -30 -6 -4
-31 -24 -57 -45 -26 -22 -51 -36 -58 -32 -7 5 -10 28 -7 66 2 33 1 59 -3 59
-12 0 -29 -92 -32 -177 -2 -92 -17 -109 -43 -48 -26 63 -18 141 22 225 39 82
100 163 117 157 6 -2 19 -37 29 -78z m195 -5 c-27 -24 -54 -44 -60 -44 -7 0
13 23 43 49 30 27 57 47 60 44 3 -3 -17 -25 -43 -49z m-37 -106 c-1 -63 -109
-278 -140 -278 -16 0 -12 10 24 60 36 51 66 133 66 183 0 17 8 36 18 43 25 19
32 17 32 -8z m849 -62 c-1 -23 -4 -52 -8 -66 -6 -21 -8 -17 -14 25 -3 28 -9
66 -13 85 l-7 35 21 -19 c16 -14 22 -30 21 -60z m-920 -3 c-9 -59 -39 -128
-72 -168 -35 -42 -44 -25 -13 24 28 43 22 55 -9 21 -26 -29 -28 -19 -5 31 63
138 114 185 99 92z m237 -224 c54 -57 193 -169 271 -218 66 -42 78 -53 76 -74
-3 -39 -63 -154 -108 -206 l-40 -46 57 45 c45 35 107 106 165 189 2 3 19 -3
37 -12 39 -18 39 -11 -1 -147 -25 -84 -64 -174 -82 -184 -11 -7 -254 89 -403
160 -45 21 -261 212 -272 240 -8 20 32 62 84 89 49 25 101 79 148 152 15 24
30 43 33 43 3 0 18 -14 35 -31z m-401 -42 c67 -36 72 -47 74 -146 1 -66 -13
-76 -22 -16 l-4 30 -2 -32 c-1 -38 -10 -41 -42 -13 l-24 19 38 36 c46 45 48
65 5 66 -18 1 -39 1 -46 0 -8 -1 -20 6 -27 16 -12 16 -15 14 -33 -28 l-20 -47
-48 9 c-26 5 -49 11 -51 13 -10 10 13 61 42 92 42 44 79 44 160 1z m131 -113
c-4 -14 -9 -24 -12 -21 -3 2 -2 17 2 31 3 15 9 25 11 22 3 -3 2 -17 -1 -32z
m-989 -50 c79 -17 170 -58 221 -101 31 -25 34 -35 39 -93 4 -49 2 -69 -9 -77
-9 -8 -77 -13 -197 -15 l-184 -3 -41 -50 c-78 -96 -142 -151 -241 -209 -55
-33 -111 -69 -124 -80 -13 -12 -62 -79 -109 -150 -85 -128 -86 -129 -95 -100
-5 16 -10 106 -10 199 -1 185 14 269 66 372 55 107 245 246 423 308 73 26 134
25 261 -1z m753 -8 c209 -91 418 -296 548 -537 59 -112 86 -192 107 -319 21
-128 32 -340 17 -340 -16 0 -19 8 -42 119 -39 192 -103 340 -227 526 -133 200
-267 338 -425 438 -52 34 -57 41 -67 87 -6 28 -11 53 -11 55 0 11 26 3 100
-29z m10 -202 c81 -53 196 -172 255 -264 48 -74 104 -202 134 -305 23 -78 43
-271 32 -310 l-6 -26 -45 29 c-86 55 -102 81 -117 184 -7 51 -25 131 -39 177
-25 81 -84 225 -90 219 -1 -2 13 -48 32 -102 41 -117 84 -306 70 -306 -9 0
-74 124 -96 181 -11 31 -43 94 -72 140 -68 113 -85 154 -107 267 -28 144 -31
162 -25 162 2 0 36 -21 74 -46z m1285 -30 c50 -13 133 -27 185 -31 l95 -6 -3
-102 c-5 -114 14 -201 49 -236 26 -26 35 -18 15 13 -17 27 -41 126 -32 135 3
4 19 -5 34 -19 35 -33 140 -102 222 -145 l65 -35 -70 6 c-60 6 -75 4 -102 -13
-43 -27 -43 -46 0 -21 29 17 45 19 135 13 117 -7 131 -16 139 -86 5 -41 3 -46
-50 -102 l-55 -58 -163 11 c-257 18 -408 66 -689 219 -117 64 -332 202 -417
267 -127 98 -127 99 7 42 69 -29 142 -59 163 -66 34 -11 38 -15 32 -37 -6 -24
-5 -24 16 -9 20 13 26 13 73 -5 188 -74 351 -119 435 -119 55 0 81 -12 141
-65 68 -61 76 -51 10 11 -61 58 -95 72 -170 73 -73 1 -339 75 -424 118 l-29
15 50 51 c28 29 69 79 92 111 22 33 41 52 41 42 0 -33 60 -172 91 -209 38 -46
51 -42 15 5 -56 74 -107 229 -87 267 11 19 13 19 54 5 23 -8 83 -26 132 -40z
m-2838 -132 c9 -5 8 -21 -2 -64 -7 -31 -15 -61 -19 -66 -10 -17 -67 -22 -107
-11 -79 24 -128 -20 -184 -168 -46 -121 -108 -273 -169 -418 -76 -178 -110
-301 -176 -625 -45 -217 -51 -234 -83 -238 -19 -2 -27 1 -27 12 0 27 21 117
65 281 24 88 53 205 65 260 27 123 65 263 89 324 218 553 271 650 385 702 41
19 140 26 163 11z m-31 -194 c-3 -18 -17 -60 -30 -93 -13 -33 -29 -87 -36
-120 -6 -33 -36 -166 -65 -295 -29 -129 -66 -293 -81 -365 -14 -71 -32 -133
-38 -137 -6 -4 -19 -8 -30 -8 -17 0 -18 5 -12 53 4 28 25 130 47 225 21 94 55
249 74 344 44 216 71 312 102 366 39 65 80 83 69 30z m3740 7 c80 -2 123 -22
161 -74 13 -16 59 -59 105 -96 80 -64 167 -165 168 -195 1 -15 16 -37 100
-146 25 -33 69 -96 98 -140 45 -70 56 -95 72 -179 11 -53 20 -104 20 -113 0
-10 -20 20 -45 66 -51 95 -70 124 -137 204 -26 32 -63 87 -83 123 -37 66 -133
180 -143 170 -3 -3 16 -32 42 -66 26 -33 45 -63 43 -65 -2 -3 -35 30 -72 73
-206 238 -283 308 -455 414 l-65 41 60 -7 c33 -4 92 -8 131 -10z m-1234 -316
c97 -64 229 -131 339 -172 87 -33 303 -83 419 -98 113 -14 337 -5 409 17 59
17 110 70 136 140 10 27 21 52 25 57 3 4 45 -9 93 -28 48 -19 93 -35 100 -35
21 0 337 -359 337 -383 0 -2 -30 -9 -67 -16 -224 -39 -250 -41 -436 -36 -373
10 -728 55 -1187 151 -182 38 -208 40 -216 20 -4 -11 -16 -11 -72 1 -37 7 -70
17 -73 21 -4 4 -9 91 -11 193 l-5 186 41 21 c22 11 49 21 58 21 10 1 59 -26
110 -60z m-767 -716 c-25 -146 -128 -473 -223 -703 -67 -163 -201 -373 -317
-498 -43 -46 -75 -85 -72 -88 7 -7 119 108 182 186 112 141 228 334 273 455
50 132 146 471 187 658 5 25 9 28 34 22 48 -10 145 -53 150 -66 4 -14 -5 -57
-80 -369 -90 -368 -158 -562 -229 -652 -26 -34 -46 -37 -29 -6 25 46 251 699
263 758 14 73 -13 7 -84 -200 -101 -299 -164 -461 -205 -532 -76 -130 -177
-255 -439 -546 -65 -73 -117 -135 -114 -137 5 -5 253 245 382 385 l78 84 -46
-92 c-25 -50 -46 -105 -46 -122 0 -21 -23 -65 -74 -143 -40 -61 -116 -179
-167 -262 -51 -82 -113 -178 -138 -212 l-44 -63 -17 28 c-23 38 -105 244 -145
368 -18 55 -50 174 -70 265 -20 90 -42 187 -50 214 -7 28 -17 69 -20 92 -6 39
-5 43 23 57 28 14 30 14 43 -10 7 -14 48 -55 90 -90 42 -35 102 -91 133 -124
31 -34 56 -57 56 -52 0 22 -69 105 -162 193 l-101 96 79 43 c293 158 317 174
409 265 63 62 110 120 150 185 124 202 214 385 266 540 16 47 31 91 34 98 2 6
14 12 25 12 19 0 20 -4 15 -37z m814 -160 c151 -757 200 -1138 201 -1544 l0
-176 -39 -56 c-215 -307 -582 -746 -976 -1167 -100 -107 -198 -213 -218 -235
l-36 -40 -1 115 c0 220 20 716 35 835 19 165 43 417 51 553 l7 113 92 92 c94
94 161 190 215 311 33 72 37 112 16 141 -12 16 -10 27 15 84 107 250 210 576
288 911 l36 155 30 3 c63 5 148 24 188 42 23 10 47 19 53 19 6 1 24 -65 43
-156z m-2719 125 c-10 -25 -81 -451 -101 -608 -20 -164 -15 -155 -90 -154 -35
1 -76 6 -91 12 -25 10 -28 16 -28 63 0 80 72 556 96 630 14 43 29 58 74 72 8
3 45 6 82 6 66 1 67 1 58 -21z m65 -25 c2 -24 14 -59 26 -80 21 -34 22 -39 10
-107 -23 -127 -49 -318 -61 -450 l-13 -128 -58 4 c-32 2 -61 6 -63 9 -15 15
98 754 121 792 3 4 12 7 20 5 10 -2 16 -17 18 -45z m1446 -40 c-44 -87 -106
-166 -231 -291 -180 -182 -288 -252 -387 -252 -35 0 -64 7 -90 22 -67 39 -181
126 -246 188 l-62 61 40 -17 c62 -26 127 -38 168 -30 44 8 99 54 117 96 11 27
17 30 57 30 50 0 102 19 150 56 32 24 36 25 86 14 45 -10 59 -9 111 9 33 12
73 21 91 21 44 0 123 25 146 46 11 10 28 37 39 61 10 24 24 43 30 43 5 0 -3
-26 -19 -57z m2494 -22 c17 -10 58 -43 90 -73 58 -54 63 -56 165 -77 109 -23
239 -71 316 -116 168 -98 361 -321 533 -615 39 -65 43 -69 96 -92 23 -10 40
-33 74 -100 53 -105 63 -166 32 -197 -11 -11 -29 -21 -40 -21 -29 0 -38 -19
-45 -103 -9 -111 -30 -187 -87 -307 -86 -181 -208 -322 -349 -403 -45 -25
-152 -60 -221 -71 -57 -10 -60 4 -33 124 14 58 27 148 31 200 5 80 9 99 28
120 34 38 45 65 45 110 0 102 -89 172 -173 136 -93 -38 -103 -175 -18 -248
l38 -33 -8 -80 c-9 -87 -45 -273 -60 -312 -9 -24 -10 -25 -112 -18 -132 9
-212 27 -290 66 -220 111 -366 274 -546 609 -40 74 -76 138 -80 143 -4 4 -34
12 -67 17 -48 8 -65 16 -90 43 -29 31 -63 116 -79 193 -9 45 23 80 93 100 31
9 63 21 70 26 7 7 12 35 12 73 0 145 57 349 126 453 93 141 255 263 407 307
l57 16 0 68 c0 37 3 71 7 74 12 13 48 7 78 -12z m-3779 -248 c43 -79 58 -119
69 -185 8 -45 24 -118 35 -162 16 -59 19 -93 14 -138 -7 -58 -7 -59 -33 -53
-14 4 -73 18 -131 31 -113 25 -130 37 -130 88 0 73 51 451 72 534 l11 43 19
-28 c10 -15 43 -74 74 -130z m-516 5 c0 -7 -11 -89 -25 -183 -13 -93 -25 -210
-25 -260 0 -49 -12 -171 -25 -270 -14 -99 -37 -268 -51 -375 -14 -107 -30
-229 -35 -270 -6 -41 -11 -84 -13 -95 -1 -11 -7 -32 -13 -46 -29 -69 -76 -436
-108 -844 -8 -110 -20 -245 -25 -300 -52 -530 -72 -1000 -45 -1067 6 -16 3
-17 -26 -12 -68 13 -72 20 -70 120 1 49 -5 154 -14 234 -8 80 -15 210 -15 290
-1 117 -3 140 -13 120 -14 -32 -13 -403 2 -519 6 -46 8 -115 4 -153 -5 -63 -8
-68 -30 -68 -44 0 -97 38 -194 137 -159 163 -229 289 -229 413 0 33 15 128 34
212 19 84 37 173 41 198 4 25 31 167 60 315 30 149 57 294 61 323 6 48 8 52
28 45 11 -5 69 -8 129 -7 l107 0 0 -35 c0 -120 -29 -416 -65 -683 -28 -201
-34 -358 -21 -609 7 -130 6 -178 -2 -183 -20 -12 -119 63 -187 142 -72 85
-101 137 -114 203 l-9 44 -1 -40 c-1 -61 38 -132 127 -231 82 -91 165 -150
196 -138 20 8 22 126 5 341 -13 159 -8 234 37 552 22 157 43 377 58 596 6 93
-3 118 -31 93 -30 -26 -92 -41 -149 -35 -82 8 -92 17 -84 72 4 25 9 47 12 50
2 3 31 0 64 -6 60 -11 143 -6 176 12 31 17 20 27 -19 18 -52 -12 -160 -11
-184 1 -27 15 -25 44 16 233 19 89 39 191 44 227 13 83 40 111 108 117 26 2
53 0 59 -4 11 -9 2 -521 -10 -541 -4 -7 -3 -12 1 -12 5 0 15 15 22 33 10 24
16 131 21 422 10 524 25 671 106 1091 24 127 44 243 44 257 0 28 23 42 115 73
53 17 155 18 155 2z m729 -411 c6 -14 4 -56 -3 -108 -9 -62 -14 -77 -19 -59
-12 43 -4 190 10 190 2 0 7 -10 12 -23z m-638 -66 c7 -6 -5 -139 -16 -192 -7
-30 -7 -31 -56 -24 -30 4 -49 3 -49 -3 0 -14 25 -22 68 -22 22 -1 47 -9 61
-21 24 -19 24 -21 18 -147 -3 -70 -17 -201 -31 -292 -14 -91 -32 -259 -41
-375 -31 -439 -36 -489 -51 -509 -17 -25 -20 -196 -3 -213 8 -8 7 -17 -3 -34
-10 -20 -13 -166 -13 -781 l0 -758 -43 0 c-56 0 -158 26 -198 51 -39 24 -49
47 -76 177 l-21 107 26 370 c63 873 133 1592 153 1572 2 -2 -3 -55 -11 -118
-31 -239 -95 -1029 -95 -1173 0 -78 13 -25 21 86 10 131 54 678 69 853 6 66
14 149 20 185 5 36 16 124 24 195 42 360 96 816 117 983 16 130 10 122 72 105
29 -9 55 -18 58 -22z m670 -48 l-9 -48 -1 65 c0 48 2 60 10 48 6 -11 6 -34 0
-65z m-556 58 c22 -5 56 -11 75 -12 45 -4 73 -26 61 -48 -12 -21 -31 -149 -31
-201 0 -36 -3 -41 -17 -35 -17 6 -169 35 -187 35 -8 0 2 247 11 263 6 9 39 9
88 -2z m-575 -48 c-19 -82 -59 -430 -66 -565 l-6 -136 -57 -4 c-31 -2 -57 -4
-57 -3 -5 1 35 226 62 350 15 67 125 407 130 402 2 -1 -1 -21 -6 -44z m850
-29 c46 -8 99 -22 117 -29 32 -14 33 -15 32 -77 -1 -104 -12 -163 -29 -162
-18 2 -263 54 -266 57 -3 3 14 161 21 205 5 25 10 32 23 28 9 -3 55 -13 102
-22z m297 -16 c-3 -7 -5 -2 -5 12 0 14 2 19 5 13 2 -7 2 -19 0 -25z m-70 -70
c13 -15 15 -32 9 -100 -3 -46 -11 -173 -16 -283 -5 -110 -18 -346 -29 -525
-11 -179 -25 -491 -30 -695 -6 -203 -13 -442 -16 -530 -3 -88 -1 -176 4 -196
6 -28 4 -44 -10 -70 -22 -42 -23 -88 -4 -204 25 -150 20 -227 -21 -362 -59
-196 -122 -303 -186 -317 -28 -6 -38 6 -17 20 24 14 128 284 149 384 7 34 11
169 11 350 -1 515 35 1576 59 1780 5 41 16 208 25 370 27 496 25 470 42 430 7
-19 21 -42 30 -52z m123 62 c6 -11 8 -20 6 -20 -3 0 -10 9 -16 20 -6 11 -8 20
-6 20 3 0 10 -9 16 -20z m-93 -37 c-3 -10 -5 -2 -5 17 0 19 2 27 5 18 2 -10 2
-26 0 -35z m112 -67 c1 -42 -5 -29 -12 24 -4 30 -3 38 3 25 5 -11 9 -33 9 -49z
m-66 34 c3 -11 1 -18 -4 -14 -5 3 -9 12 -9 20 0 20 7 17 13 -6z m24 -32 c-3
-8 -6 -5 -6 6 -1 11 2 17 5 13 3 -3 4 -12 1 -19z m106 -25 c18 -20 18 -23 4
-23 -9 0 -17 8 -17 18 0 14 -2 15 -10 2 -7 -11 -10 -6 -9 20 0 19 3 28 6 20 3
-8 15 -25 26 -37z m-46 5 c-3 -7 -5 -2 -5 12 0 14 2 19 5 13 2 -7 2 -19 0 -25z
m-110 -80 c-2 -18 -4 -6 -4 27 0 33 2 48 4 33 2 -15 2 -42 0 -60z m20 -10 c-2
-18 -4 -6 -4 27 0 33 2 48 4 33 2 -15 2 -42 0 -60z m35 34 c9 21 48 12 48 -11
0 -10 -15 -55 -33 -102 -19 -46 -46 -119 -61 -162 -26 -72 -46 -105 -46 -75 0
17 30 110 74 231 34 94 43 128 30 114 -3 -3 -24 -52 -46 -109 -36 -95 -39 -99
-33 -53 3 30 12 55 22 62 11 9 18 33 22 75 3 44 6 56 11 38 5 -20 7 -22 12 -8z
m1405 -44 c52 -29 106 -63 119 -75 27 -25 24 -42 -23 -123 -28 -47 -44 -40
-23 10 7 16 10 36 7 44 -7 18 -177 116 -202 116 -15 0 -28 -15 -47 -54 -15
-30 -43 -76 -63 -101 -40 -53 -42 -62 -17 -81 42 -34 195 -115 207 -110 7 2
28 34 46 71 29 60 34 65 48 50 11 -11 13 -20 6 -29 -6 -8 -23 -35 -40 -61 -16
-26 -43 -62 -58 -80 l-28 -34 -47 26 c-26 14 -54 31 -62 38 -8 6 -45 29 -83
51 -78 45 -78 46 -23 142 19 34 37 70 41 81 5 17 12 20 32 15 23 -6 24 -5 13
13 -21 32 43 143 82 143 10 0 62 -24 115 -52z m-1313 20 c-3 -13 -17 -52 -31
-88 -13 -36 -33 -91 -45 -123 -12 -34 -24 -54 -30 -50 -7 3 -8 1 -4 -5 5 -9
-56 -176 -71 -192 -11 -12 12 90 29 130 11 25 40 104 65 175 63 181 61 175 78
175 12 0 15 -6 9 -22z m-632 -7 c4 -4 1 -38 -7 -76 -9 -39 -20 -149 -25 -245
-17 -293 -40 -556 -65 -747 -14 -100 -25 -184 -25 -187 0 -3 -28 -6 -61 -6
l-62 0 7 68 c3 37 13 166 21 287 16 227 38 444 55 550 9 50 40 340 40 369 0 9
111 -2 122 -13z m678 14 c0 -3 -35 -109 -77 -235 -51 -153 -80 -226 -85 -218
-6 9 -7 6 -4 -8 4 -12 -12 -69 -38 -140 -53 -141 -60 -131 -12 17 36 112 52
178 41 167 -3 -3 -17 -39 -30 -80 -15 -45 -24 -63 -25 -47 0 15 20 78 44 140
45 114 58 133 32 46 -8 -26 -12 -57 -8 -69 3 -14 14 20 28 93 19 97 81 285
107 327 8 12 27 17 27 7z m50 -15 c0 -6 15 -7 36 -4 33 5 36 4 29 -13 -4 -10
-31 -81 -60 -158 -29 -77 -60 -158 -70 -180 -9 -22 -41 -105 -70 -185 -79
-215 -164 -432 -171 -439 -17 -15 9 83 62 232 107 307 162 462 188 530 14 37
37 96 51 132 14 36 21 65 17 65 -14 0 -78 -171 -241 -635 -52 -150 -67 -183
-69 -157 -3 33 150 507 259 800 8 22 39 32 39 12z m57 -180 c-25 -69 -76 -206
-114 -305 -63 -163 -97 -256 -222 -615 l-40 -115 0 52 c-1 66 51 239 135 449
35 89 64 164 64 168 0 3 27 75 59 159 33 83 76 197 96 252 44 120 46 124 57
99 7 -14 -3 -54 -35 -144z m-76 -341 c-71 -200 -162 -463 -201 -584 -40 -121
-80 -245 -90 -275 l-18 -55 -1 65 c0 56 11 99 83 310 103 303 138 399 257 716
74 197 95 244 97 219 2 -22 -39 -150 -127 -396z m90 111 c-34 -101 -79 -231
-100 -289 -48 -130 -167 -493 -214 -656 -46 -160 -69 -291 -58 -330 9 -30 9
-30 10 10 3 121 58 326 205 760 175 517 220 647 223 638 12 -35 -76 -348 -164
-583 -22 -58 -57 -161 -78 -230 -20 -69 -59 -195 -86 -280 -26 -85 -53 -184
-59 -220 -6 -36 -17 -87 -25 -115 -17 -58 -44 -251 -53 -382 -12 -165 -24
-112 -17 72 4 99 11 182 16 185 4 3 10 71 11 150 2 80 2 136 0 125 -9 -47 -21
-35 -15 16 9 80 158 538 357 1094 104 289 99 277 103 244 2 -14 -23 -108 -56
-209z m29 -199 c-22 -80 -45 -157 -50 -171 -23 -69 -113 -349 -144 -450 -19
-63 -46 -151 -59 -195 -33 -107 -65 -301 -76 -462 -5 -72 -15 -141 -21 -153
-20 -37 -20 -34 6 185 4 33 4 58 1 55 -7 -7 -26 -120 -37 -229 -5 -47 -15 -91
-23 -98 -17 -17 -14 50 14 267 20 152 28 191 30 134 0 -16 9 25 19 92 12 76
39 186 73 295 31 96 59 185 62 199 4 14 40 120 80 235 40 116 93 275 116 355
31 101 45 136 47 116 2 -15 -15 -94 -38 -175z m159 -13 c38 -117 82 -247 97
-288 24 -69 26 -79 14 -125 -11 -47 -107 -225 -121 -225 -13 0 -20 67 -34 315
-8 138 -19 295 -25 350 -10 107 -13 185 -6 185 3 0 36 -96 75 -212z m-1699
133 c0 -28 -2 -29 -57 -34 -32 -2 -67 -7 -79 -11 -18 -7 -20 -4 -16 22 5 37
31 50 100 51 51 1 52 0 52 -28z m1586 -77 c-8 -38 -30 -123 -50 -189 -84 -284
-117 -392 -156 -517 -23 -73 -46 -146 -50 -163 -5 -16 -21 -97 -35 -180 -14
-82 -28 -157 -30 -165 -2 -8 -5 -42 -6 -75 -2 -58 -14 -111 -27 -119 -11 -7 4
221 23 339 9 61 29 148 44 195 16 47 56 180 91 295 34 116 67 218 72 227 8 16
66 209 105 348 22 82 23 83 28 78 3 -3 -1 -36 -9 -74z m-21 -232 c-72 -258
-81 -288 -114 -422 -17 -69 -42 -163 -57 -210 -14 -47 -34 -130 -45 -185 -10
-55 -26 -135 -34 -178 -8 -43 -20 -88 -27 -100 -11 -20 -12 -21 -16 -3 -11 51
59 424 108 571 21 66 49 156 60 200 43 159 58 211 70 240 6 17 27 80 45 142
36 122 46 145 53 124 2 -7 -17 -88 -43 -179z m26 -56 c-11 -45 -24 -99 -30
-121 -5 -22 -25 -103 -44 -180 -19 -77 -38 -160 -42 -185 -4 -25 -20 -88 -36
-140 -15 -52 -36 -129 -45 -170 -9 -41 -27 -96 -40 -122 -23 -45 -38 -64 -29
-35 2 6 16 72 30 146 15 74 47 204 72 290 25 86 51 188 58 226 7 39 37 153 67
254 40 140 54 177 56 151 2 -18 -6 -69 -17 -114z m14 -52 c-9 -36 -14 -72 -11
-80 3 -8 -5 -55 -19 -106 -13 -50 -31 -130 -40 -177 -31 -165 -116 -443 -131
-428 -4 4 42 200 128 542 16 66 36 147 43 180 27 115 39 158 43 146 2 -6 -4
-41 -13 -77z m20 -139 c-3 -27 -15 -88 -26 -135 -27 -117 -35 -154 -54 -240
-16 -68 -61 -177 -70 -168 -2 2 9 50 25 107 16 56 36 146 45 199 9 53 18 99
20 103 5 7 55 194 55 204 0 3 -5 3 -12 -1 -8 -5 -9 -2 -5 10 4 10 7 27 8 39 1
12 5 2 11 -23 5 -25 6 -67 3 -95z m-21 -277 c-15 -48 -29 -86 -31 -84 -5 5 12
108 35 206 l17 75 3 -55 c3 -40 -4 -79 -24 -142z m2669 176 c9 -9 -47 -70
-137 -152 -73 -67 -173 -138 -181 -131 -8 8 129 158 205 225 68 59 97 74 113
58z m-4632 -207 c-56 -214 -142 -407 -181 -407 -36 0 -22 48 69 239 49 102 99
214 112 249 35 92 34 53 0 -81z m1999 51 c-12 -18 -19 -24 -15 -13 4 11 9 36
13 55 5 32 6 33 15 13 7 -17 5 -29 -13 -55z m2750 59 c0 -17 -203 -242 -226
-251 -51 -20 -12 39 115 170 89 92 111 108 111 81z m-3798 -48 c19 -10 20 -17
14 -91 -10 -115 -15 -122 -86 -115 -32 3 -63 8 -69 12 -12 7 -14 87 -5 159 l7
46 59 0 c33 0 69 -5 80 -11z m3892 -99 c-23 -38 -104 -123 -111 -116 -12 12
93 146 115 146 10 0 9 -7 -4 -30z m-3891 -149 c4 -4 6 -173 5 -377 l-3 -369
-61 -3 c-102 -5 -98 -21 -99 376 0 185 4 350 8 365 l8 29 67 -7 c37 -4 70 -10
75 -14z m1143 -238 c-3 -27 -11 -118 -16 -203 -17 -263 -51 -702 -58 -759 -4
-33 -13 -56 -21 -59 -11 -4 -13 6 -8 49 3 30 20 245 36 479 36 501 41 540 63
540 6 0 8 -18 4 -47z m14 -353 c-11 -119 -19 -220 -39 -496 -5 -67 -12 -131
-16 -143 -9 -28 -27 -27 -21 2 8 38 15 119 40 467 14 184 28 385 33 445 l8
110 3 -130 c2 -71 -2 -186 -8 -255z m-77 148 c-31 -467 -45 -650 -54 -733 -9
-84 -20 -117 -35 -103 -5 6 20 388 52 781 10 134 19 196 31 213 8 13 16 24 17
24 1 0 -4 -82 -11 -182z m-63 -179 c-41 -563 -49 -660 -55 -669 -3 -6 -13 -10
-21 -10 -13 0 -14 10 -10 52 4 29 11 118 16 198 6 80 17 226 25 325 8 99 16
212 19 250 2 39 7 79 12 90 9 24 25 47 31 42 2 -2 -6 -127 -17 -278z m178 -24
c-5 -88 -15 -185 -22 -215 l-14 -55 -1 50 c-1 40 24 447 30 505 1 8 5 -16 9
-55 4 -38 3 -142 -2 -230z m-229 70 c-5 -77 -13 -194 -19 -260 -5 -66 -15
-196 -21 -290 -9 -130 -16 -173 -27 -182 -23 -19 -29 -16 -26 15 2 15 8 95 14
177 33 467 51 639 66 663 9 13 17 22 19 20 2 -2 -1 -66 -6 -143z m-78 -314
c-12 -146 -24 -303 -27 -348 -5 -70 -9 -83 -26 -89 -11 -3 -21 -4 -22 -2 -2 1
1 41 6 88 4 47 19 218 31 382 17 216 27 301 38 314 13 16 14 13 17 -31 2 -26
-6 -168 -17 -314z m334 151 c-3 -40 -10 -83 -16 -95 -8 -18 -9 -16 -4 12 3 18
6 90 6 160 1 119 2 123 11 61 5 -36 6 -98 3 -138z m-377 36 c-4 -57 -12 -159
-18 -228 -5 -69 -15 -188 -21 -265 -11 -130 -17 -154 -43 -155 -5 0 -6 28 -2
63 4 34 11 134 16 222 6 88 15 193 20 233 6 40 10 91 10 113 0 38 26 119 39
119 3 0 3 -46 -1 -102z m-54 -20 c-2 -24 -11 -115 -18 -203 -8 -88 -18 -200
-21 -250 -10 -162 -15 -185 -38 -185 -18 0 -19 5 -14 47 7 52 21 219 37 436 9
116 14 143 32 168 12 16 23 29 24 29 1 0 0 -19 -2 -42z m-79 -269 c-24 -343
-29 -379 -51 -379 -18 0 -18 -1 7 290 13 160 26 254 36 273 8 16 16 27 18 25
3 -2 -2 -96 -10 -209z m-48 54 c-16 -212 -37 -426 -42 -434 -14 -21 -34 -9
-30 19 2 15 7 61 10 102 16 219 44 390 63 390 3 0 2 -35 -1 -77z m-60 -150
c-9 -70 -20 -164 -24 -207 -7 -73 -10 -80 -30 -81 -13 -1 -23 2 -23 6 0 5 -7
6 -15 3 -18 -7 -19 -11 1 144 29 226 41 172 19 -83 -4 -47 -3 -46 10 15 8 36
14 106 15 155 0 53 4 85 9 77 6 -9 10 -3 14 20 7 44 26 92 34 85 3 -4 -2 -64
-10 -134z m544 -53 c0 -54 -4 -77 -16 -89 -15 -15 -16 -13 -10 19 3 19 7 63 8
97 3 86 18 62 18 -27z m-644 -37 c-3 -10 -5 -4 -5 12 0 17 2 24 5 18 2 -7 2
-21 0 -30z m-17 -144 c0 -46 -1 -49 -16 -35 -13 14 -13 21 -3 51 7 19 14 35
16 35 2 0 3 -23 3 -51z m660 24 c-1 -5 -14 -33 -30 -63 -18 -34 -29 -47 -29
-35 -1 27 36 105 49 105 5 0 10 -3 10 -7z m-66 -60 c-25 -70 -38 -77 -29 -18
3 28 14 56 22 62 25 19 27 9 7 -44z m-38 6 c-3 -17 -6 -37 -6 -44 0 -7 -7 -16
-16 -19 -13 -5 -15 0 -9 36 8 50 12 58 27 58 6 0 8 -12 4 -31z m-50 -43 c-9
-21 -22 -36 -32 -36 -11 0 -14 5 -10 16 3 9 6 19 6 23 0 5 10 21 22 37 29 36
36 13 14 -40z m-46 20 c0 -30 -19 -63 -38 -68 -18 -5 -19 -3 -10 26 5 17 11
37 14 44 5 17 34 15 34 -2z m-56 -23 c-7 -29 -40 -71 -49 -62 -8 8 13 72 27
81 23 14 29 9 22 -19z m-403 2 c19 -8 27 -14 18 -15 -9 0 -30 7 -45 15 -37 19
-17 19 27 0z m186 -1 c-10 -11 -87 -22 -87 -13 0 7 16 10 79 17 8 1 12 -1 8
-4z m159 -31 c-14 -40 -46 -58 -47 -26 0 14 -2 13 -10 -6 -13 -32 -21 -22 -13
17 6 30 29 45 76 51 4 1 1 -16 -6 -36z m-381 -1 c-1 -9 0 -11 2 -4 9 24 23 11
17 -15 l-6 -28 22 25 21 25 -7 -35 c-9 -50 -35 -108 -41 -92 -4 10 -9 8 -19
-5 -14 -16 -14 -15 -9 17 l6 35 -18 -35 c-15 -29 -24 -36 -55 -38 l-37 -3 45
68 c25 37 50 78 55 91 10 26 29 22 24 -6z m115 18 c0 -5 -5 -10 -11 -10 -5 0
-7 5 -4 10 3 6 8 10 11 10 2 0 4 -4 4 -10z m181 -53 c-14 -36 -31 -34 -31 3 0
17 7 33 18 39 22 12 27 -5 13 -42z m-45 -1 c-6 -30 -31 -54 -44 -42 -11 12 10
75 26 78 24 6 25 3 18 -36z m-54 -7 c-3 -33 -9 -42 -30 -50 -18 -7 -28 -7 -30
0 -2 7 -9 5 -19 -4 -22 -22 -35 -18 -28 8 16 51 31 72 52 72 12 0 25 4 29 8
19 18 29 5 26 -34z m-107 -11 c-10 -45 -23 -68 -39 -68 -12 0 -11 9 2 50 18
57 48 72 37 18z"/>
<path d="M4630 7873 c0 -6 30 -13 68 -16 91 -8 132 -21 183 -62 24 -19 45 -32
47 -30 10 10 -43 67 -79 85 -44 23 -219 41 -219 23z"/>
<path d="M4498 7853 c6 -2 18 -2 25 0 6 3 1 5 -13 5 -14 0 -19 -2 -12 -5z"/>
<path d="M4601 7284 c0 -11 3 -14 6 -6 3 7 2 16 -1 19 -3 4 -6 -2 -5 -13z"/>
<path d="M4452 7275 c0 -11 4 -31 8 -45 6 -20 8 -21 8 -5 0 11 -4 31 -8 45 -6
20 -8 21 -8 5z"/>
<path d="M4612 7240 c0 -14 2 -19 5 -12 2 6 2 18 0 25 -3 6 -5 1 -5 -13z"/>
<path d="M5390 6940 c-37 -47 -24 -55 14 -9 23 28 33 49 22 49 -2 0 -19 -18
-36 -40z"/>
<path d="M5221 6956 c12 -10 60 -16 54 -6 -3 5 -18 10 -32 10 -15 0 -24 -2
-22 -4z"/>
<path d="M4794 6705 c-9 -23 63 -113 129 -161 75 -55 165 -84 264 -84 96 0
125 15 159 83 14 28 33 60 42 70 24 27 4 38 -89 48 -46 5 -100 14 -119 19 -19
6 -90 10 -158 10 -86 0 -133 4 -159 15 -45 19 -62 19 -69 0z m286 -49 c54 -3
154 -50 174 -82 49 -74 17 -110 -92 -102 -94 8 -195 50 -249 106 -43 44 -54
76 -30 85 11 3 85 1 197 -7z m215 -16 c19 -8 19 -8 -5 -18 -22 -9 -80 5 -99
23 -8 8 83 4 104 -5z"/>
<path d="M5125 6360 c3 -5 24 -10 45 -10 21 0 42 5 45 10 4 6 -13 10 -45 10
-32 0 -49 -4 -45 -10z"/>
<path d="M3553 7703 c-21 -8 -14 -25 7 -18 43 14 146 -79 195 -176 23 -46 26
-62 21 -109 l-6 -55 21 25 c43 51 3 168 -91 259 -71 70 -110 89 -147 74z"/>
<path d="M3536 7611 c-14 -21 -20 -156 -8 -177 8 -14 11 -5 17 47 8 81 4 150
-9 130z"/>
<path d="M3658 7490 c-35 -27 -52 -72 -45 -121 5 -37 3 -40 -14 -36 -16 4 -17
2 -7 -16 14 -28 127 -146 150 -158 13 -7 26 -4 44 7 25 17 28 17 60 -1 19 -10
37 -15 40 -12 13 12 -20 71 -63 114 -38 37 -41 39 -29 14 9 -16 28 -38 43 -49
33 -24 31 -27 -23 -36 -39 -5 -45 -3 -110 52 -67 56 -69 59 -72 109 -4 63 16
106 58 128 17 9 30 18 30 20 0 12 -40 3 -62 -15z"/>
<path d="M5902 7090 c0 -19 2 -27 5 -17 2 9 2 25 0 35 -3 9 -5 1 -5 -18z"/>
<path d="M3569 7153 c26 -38 49 -56 33 -27 -6 11 -20 28 -33 39 l-23 20 23
-32z"/>
<path d="M3070 5260 c-25 -10 -71 -22 -102 -26 -62 -7 -79 -24 -25 -24 44 0
125 25 162 50 36 24 25 24 -35 0z"/>
<path d="M3175 5029 c-27 -22 -75 -53 -105 -69 -67 -37 -117 -76 -108 -85 9
-10 187 103 238 152 56 53 42 54 -25 2z"/>
<path d="M3296 4755 c-75 -93 -111 -219 -82 -290 9 -21 19 -35 23 -31 4 4 7
50 8 104 0 104 9 130 77 230 40 59 28 53 -26 -13z"/>
<path d="M3616 4667 c-15 -23 -46 -102 -46 -118 0 -21 18 -7 24 19 4 15 18 48
32 75 24 48 17 66 -10 24z"/>
<path d="M3398 6503 c-33 -36 -58 -86 -57 -115 0 -20 2 -19 11 7 6 17 23 48
38 70 49 74 52 84 8 38z"/>
<path d="M2151 5450 c-96 -106 -116 -141 -53 -94 72 53 117 98 145 141 31 49
32 53 13 53 -7 0 -54 -45 -105 -100z"/>
<path d="M5545 5234 c11 -8 49 -34 84 -56 34 -23 105 -85 157 -137 97 -99 122
-112 56 -29 -79 99 -256 239 -301 238 -13 -1 -12 -4 4 -16z"/>
<path d="M5680 3109 c-96 -11 -266 -55 -305 -78 -33 -19 -44 -51 -23 -68 19
-16 116 -39 248 -60 175 -27 580 -24 707 5 134 31 210 75 201 119 -10 51 -193
83 -513 88 -132 2 -274 0 -315 -6z"/>
<path d="M1095 2070 c3 -5 30 -16 60 -25 30 -8 62 -18 72 -21 10 -3 2 4 -18
15 -40 22 -122 44 -114 31z"/>
<path d="M1405 3428 c-2 -7 -9 -50 -15 -96 -8 -62 -8 -87 0 -97 11 -14 136
-32 147 -22 8 9 34 188 28 198 -3 4 -20 10 -38 13 -102 16 -118 16 -122 4z
m45 -27 c0 -12 -20 -25 -27 -18 -7 7 6 27 18 27 5 0 9 -4 9 -9z m100 -16 c0
-8 -4 -15 -9 -15 -4 0 -12 -31 -15 -70 -4 -38 -11 -70 -17 -70 -5 0 -9 6 -9
13 0 7 -13 12 -32 12 -38 0 -57 28 -50 75 5 35 48 65 73 49 21 -13 29 -11 23
6 -4 10 0 15 15 15 12 0 21 -6 21 -15z m-125 -125 c3 -5 -1 -10 -10 -10 -9 0
-13 5 -10 10 3 6 8 10 10 10 2 0 7 -4 10 -10z"/>
<path d="M2351 1964 c0 -11 3 -14 6 -6 3 7 2 16 -1 19 -3 4 -6 -2 -5 -13z"/>
<path d="M2386 1934 c-4 -20 -5 -38 -3 -40 3 -3 8 11 11 32 4 20 5 38 3 40 -3
3 -8 -11 -11 -32z"/>
<path d="M1289 1837 c9 -12 10 -17 2 -17 -8 0 -11 -21 -9 -67 l3 -67 35 -8
c42 -9 76 -3 79 14 1 7 5 43 7 81 l6 67 -35 0 c-19 0 -50 3 -68 7 -31 6 -33 5
-20 -10z m101 -64 c0 -63 -9 -75 -51 -71 -32 3 -34 5 -37 47 -5 62 1 71 48 71
l40 0 0 -47z"/>
<path d="M1871 94 c0 -11 3 -14 6 -6 3 7 2 16 -1 19 -3 4 -6 -2 -5 -13z"/>
<path d="M1796 53 c-6 -14 -5 -15 5 -6 7 7 10 15 7 18 -3 3 -9 -2 -12 -12z"/>
<path d="M2006 135 c-9 -26 -7 -32 5 -12 6 10 9 21 6 23 -2 3 -7 -2 -11 -11z"/>
<path d="M4308 9443 c-78 -170 -146 -418 -189 -694 -39 -255 -37 -653 6 -844
18 -82 18 -33 0 100 -17 128 -19 403 -5 560 33 346 125 736 216 918 14 26 22
47 19 47 -4 0 -25 -39 -47 -87z"/>
<path d="M3924 9398 c-46 -50 -166 -195 -187 -228 -6 -8 10 7 34 35 24 27 56
63 71 80 14 16 29 28 31 25 3 -3 -10 -65 -28 -137 -33 -131 -52 -233 -42 -223
3 3 13 43 22 89 26 127 80 289 119 354 19 31 33 57 32 57 -2 0 -25 -24 -52
-52z"/>
<path d="M4526 9109 c-10 -33 -16 -63 -13 -65 2 -3 12 23 21 57 10 33 16 63
13 65 -2 3 -12 -23 -21 -57z"/>
<path d="M6211 8925 c0 -5 11 -30 24 -55 13 -25 24 -40 24 -35 0 6 -11 30 -24
55 -13 25 -24 41 -24 35z"/>
<path d="M4741 8845 c-13 -44 -41 -125 -62 -179 -21 -55 -36 -102 -34 -104 13
-13 128 305 123 341 -2 13 -12 -9 -27 -58z"/>
<path d="M3896 7674 c4 -127 32 -333 53 -384 8 -21 10 -22 10 -5 0 11 -4 38
-9 60 -12 51 -38 242 -50 365 -9 93 -9 92 -4 -36z"/>
<path d="M4021 7454 c0 -11 3 -14 6 -6 3 7 2 16 -1 19 -3 4 -6 -2 -5 -13z"/>
<path d="M6492 7330 c0 -14 2 -19 5 -12 2 6 2 18 0 25 -3 6 -5 1 -5 -13z"/>
<path d="M8181 1746 c-10 -12 -8 -19 8 -35 16 -16 17 -20 4 -25 -8 -3 -23 -6
-33 -6 -32 0 -64 -34 -57 -62 8 -31 46 -49 121 -56 42 -3 54 -8 42 -14 -9 -5
-16 -18 -16 -29 0 -27 44 -42 100 -34 25 4 52 8 62 9 19 3 48 25 48 37 0 5
-15 2 -32 -7 -39 -20 -159 -26 -165 -7 -2 6 10 19 26 29 17 10 31 22 31 26 0
4 -29 8 -65 8 -79 0 -135 20 -135 49 0 28 16 35 90 41 l65 5 -39 21 c-112 58
0 66 137 9 13 -5 17 -2 17 14 0 17 6 21 35 21 26 0 45 -9 74 -35 22 -20 41
-31 43 -25 5 16 85 32 124 24 18 -3 38 -12 45 -20 9 -11 5 -16 -17 -26 -28
-11 -26 -12 36 -18 36 -3 71 -10 78 -14 23 -14 12 -26 -25 -27 -35 -1 -34 -2
19 -15 66 -16 128 -45 149 -70 15 -18 7 -18 -101 2 l-35 7 38 -40 c66 -69 38
-84 -63 -33 -33 17 -62 30 -64 30 -3 0 -3 -13 0 -28 13 -63 -62 -57 -132 10
l-31 29 -22 -36 c-24 -41 -44 -41 -94 1 -37 31 -48 30 -41 -3 4 -21 -4 -43
-33 -88 -21 -33 -52 -85 -67 -115 -16 -30 -32 -60 -38 -66 -11 -15 -119 25
-242 90 -48 25 -97 46 -109 46 -50 0 -100 -24 -159 -76 -35 -30 -99 -80 -143
-111 -44 -32 -132 -97 -197 -144 l-116 -87 -132 8 c-153 11 -199 22 -341 87
-137 63 -189 94 -189 110 0 16 84 348 95 376 4 9 5 17 2 17 -10 0 -68 -192
-182 -595 -59 -209 -143 -497 -186 -639 -44 -143 -77 -261 -74 -264 8 -8 8 -8
64 173 29 94 63 202 77 240 23 67 24 68 20 25 -14 -161 -28 -431 -23 -437 15
-15 21 13 25 122 3 63 7 115 11 115 9 0 323 -44 536 -76 99 -15 223 -29 275
-31 l94 -5 31 34 c26 30 43 37 125 56 117 27 180 37 180 28 0 -14 -55 -94
-107 -155 -42 -50 -51 -66 -42 -77 33 -41 68 -6 221 220 38 56 100 86 181 86
62 0 87 18 142 101 25 37 54 71 65 74 25 8 47 44 56 91 4 21 15 45 25 54 11 8
25 32 32 54 11 31 20 41 52 52 72 24 85 58 85 221 0 104 0 105 -31 133 -16 16
-39 32 -50 35 -10 4 -19 11 -19 16 0 12 103 200 129 236 11 17 23 21 39 18 17
-4 31 2 52 25 l29 31 33 -24 c83 -62 125 -67 135 -16 3 16 8 29 12 29 3 0 28
-12 54 -26 82 -43 135 -17 88 43 -12 14 -20 27 -18 29 2 2 20 -2 40 -8 27 -8
41 -8 48 -1 22 22 -2 53 -60 80 -34 16 -64 38 -73 54 -11 19 -26 28 -57 33
-32 5 -41 11 -41 26 0 13 -10 24 -26 30 -34 13 -117 13 -147 -1 -20 -9 -30 -6
-62 15 -52 36 -80 41 -109 23 -21 -14 -30 -14 -77 -2 -69 19 -113 19 -128 1z
m269 -321 c0 -3 -20 -36 -45 -74 -24 -39 -65 -111 -90 -161 -26 -49 -51 -90
-56 -90 -5 0 -9 2 -9 5 0 15 182 325 191 325 5 0 9 -2 9 -5z m-449 -163 c30
-16 97 -46 149 -67 52 -21 97 -40 98 -41 2 -2 -4 -16 -14 -33 -20 -34 -33 -37
-149 -31 -74 3 -94 13 -102 51 -8 42 -23 36 -23 -10 0 -37 -2 -39 -37 -46 -20
-3 -81 -5 -136 -4 -76 2 -102 0 -105 -10 -4 -11 46 -12 269 -6 151 3 298 10
328 16 62 10 71 7 71 -26 0 -33 -38 -56 -96 -58 -42 -2 -50 1 -61 23 -13 26
-19 7 -7 -24 7 -19 85 -22 131 -6 57 20 -49 -58 -117 -87 -54 -22 -82 -27
-160 -28 -108 -2 -131 -7 -215 -47 -43 -20 -76 -28 -115 -28 -44 -1 -51 -3
-37 -11 10 -6 38 -9 63 -7 24 2 44 -1 44 -6 0 -24 -69 -132 -111 -175 -50 -49
-140 -103 -213 -128 l-41 -13 45 5 c114 14 268 138 335 270 27 54 36 63 96 93
63 32 71 33 132 27 l65 -7 -19 -32 c-19 -32 -55 -56 -85 -56 -24 0 -94 -39
-120 -67 -17 -19 -24 -38 -24 -68 0 -37 -4 -44 -37 -66 -37 -23 -38 -26 -39
-84 -1 -36 5 -69 13 -83 13 -20 12 -27 -9 -64 -21 -39 -28 -43 -83 -55 -33 -8
-97 -23 -143 -33 -45 -11 -99 -20 -120 -19 -43 0 -141 20 -160 32 -23 15 -49
81 -66 163 -21 105 -21 105 9 61 14 -20 27 -37 29 -37 1 0 -9 33 -23 73 -19
53 -25 93 -25 152 -1 123 6 132 217 288 100 73 209 152 242 174 33 23 87 65
120 93 33 28 69 56 80 60 41 18 101 10 156 -18z m334 -152 c4 -6 -5 -10 -20
-10 -15 0 -24 4 -20 10 3 6 12 10 20 10 8 0 17 -4 20 -10z m51 -35 c14 -22 16
-42 10 -143 -8 -124 -16 -145 -64 -163 -57 -22 -68 -21 -80 5 -20 44 -105 25
-128 -28 l-13 -31 -1 28 c0 16 9 42 21 58 22 32 106 79 139 79 11 0 20 5 20
10 0 6 -6 10 -12 10 -7 0 11 21 40 46 47 41 52 49 52 88 0 23 -5 47 -12 54 -9
9 -9 12 0 12 6 0 19 -11 28 -25z m-273 -250 c-3 -9 -8 -14 -10 -11 -3 3 -2 9
2 15 9 16 15 13 8 -4z m125 -47 c21 -21 13 -37 -28 -58 -50 -25 -80 -26 -80
-2 0 27 22 51 55 61 41 12 39 13 53 -1z m-143 -47 c9 -56 25 -67 78 -52 23 7
52 19 65 27 25 17 28 8 7 -22 -32 -47 -202 -89 -325 -82 -48 3 -55 6 -58 25
-6 38 46 82 133 113 44 15 83 28 87 29 3 0 9 -17 13 -38z m88 -168 c-20 -43
-75 -77 -156 -99 -85 -22 -97 -20 -97 20 0 53 -52 81 -107 59 -12 -6 -1 -10
37 -13 54 -5 55 -6 58 -39 l3 -34 -57 6 c-65 7 -95 27 -78 54 27 43 57 54 188
64 71 6 149 16 175 23 25 6 47 8 49 4 2 -5 -5 -25 -15 -45z m-92 -120 c-5 -10
-27 -37 -49 -60 -36 -39 -43 -43 -88 -43 -32 0 -66 9 -99 25 -39 20 -43 24
-20 20 17 -3 38 -8 48 -11 9 -3 17 -1 17 5 0 5 -20 13 -43 16 -56 9 -72 19
-63 40 5 14 14 15 47 10 61 -10 180 -8 209 3 39 17 52 15 41 -5z m-281 -119
c-14 -36 -137 -218 -181 -268 -20 -22 -41 -38 -45 -33 -4 4 6 22 22 40 64 69
97 115 190 265 19 30 26 28 14 -4z m40 -4 c0 -5 -5 -10 -11 -10 -5 0 -7 5 -4
10 3 6 8 10 11 10 2 0 4 -4 4 -10z"/>
<path d="M7884 658 c-14 -17 -15 -19 -2 -10 9 8 37 14 62 15 59 2 60 17 3 17
-33 0 -49 -6 -63 -22z"/>
<path d="M8473 1640 c-53 -8 -61 -15 -33 -30 73 -39 230 -67 230 -41 0 19 -53
59 -88 65 -20 4 -44 8 -52 10 -8 2 -34 0 -57 -4z m116 -28 c64 -24 68 -47 7
-38 -62 10 -119 30 -124 44 -6 18 65 14 117 -6z"/>
<path d="M2683 1538 c14 -65 70 -240 120 -374 31 -84 57 -157 57 -163 0 -6 5
-11 10 -11 17 0 -7 80 -95 320 -32 85 -64 176 -72 202 -14 48 -29 67 -20 26z"/>
<path d="M3072 638 c-33 -51 -103 -141 -154 -199 -160 -182 -372 -446 -301
-374 110 110 452 476 464 495 24 39 67 170 56 170 -2 0 -31 -42 -65 -92z"/>
<path d="M3404 578 c-38 -50 -153 -200 -256 -332 -143 -183 -184 -242 -171
-245 10 -2 19 2 21 8 2 6 34 51 71 99 139 179 416 562 408 562 -3 0 -36 -41
-73 -92z"/>
</g>
</svg>
