<svg xmlns="http://www.w3.org/2000/svg" style="display:none">
  <!-- Niklaser icon set: rounded, high-contrast, currentColor-driven -->

  <symbol id="home" viewBox="0 0 24 24">
    <g fill="none" stroke="currentColor" stroke-width="2" stroke-linecap="round" stroke-linejoin="round">
      <path d="M3 10.5 12 3l9 7.5" />
      <path d="M5 10.5V20a2 2 0 0 0 2 2h4v-7h2v7h4a2 2 0 0 0 2-2v-9.5" />
    </g>
  </symbol>

  <symbol id="arrows" viewBox="0 0 24 24">
    <g fill="none" stroke="currentColor" stroke-width="2" stroke-linecap="round" stroke-linejoin="round">
      <path d="M4 7h13" />
      <path d="M17 3l4 4-4 4" />
      <path d="M20 17H7" />
      <path d="M7 21l-4-4 4-4" />
    </g>
  </symbol>

  <symbol id="map" viewBox="0 0 24 24">
    <g fill="none" stroke="currentColor" stroke-width="2" stroke-linecap="round" stroke-linejoin="round">
      <path d="M9 18l-6 3V6l6-3 6 3 6-3v15l-6 3-6-3z" />
      <path d="M9 3v15" />
      <path d="M15 6v15" />
    </g>
  </symbol>

  <symbol id="settings" viewBox="0 0 24 24">
    <g fill="none" stroke="currentColor" stroke-width="2" stroke-linecap="round" stroke-linejoin="round">
      <path d="M4 6h16" />
      <path d="M4 12h16" />
      <path d="M4 18h16" />
      <circle cx="9" cy="6" r="2" />
      <circle cx="15" cy="12" r="2" />
      <circle cx="7" cy="18" r="2" />
    </g>
  </symbol>

  <symbol id="logs" viewBox="0 0 24 24">
    <g fill="none" stroke="currentColor" stroke-width="2" stroke-linecap="round" stroke-linejoin="round">
      <path d="M7 3h7l3 3v15a2 2 0 0 1-2 2H7a2 2 0 0 1-2-2V5a2 2 0 0 1 2-2Z" />
      <path d="M14 3v3h3" />
      <path d="M8 12h8" />
      <path d="M8 16h8" />
    </g>
  </symbol>

  <symbol id="info" viewBox="0 0 24 24">
    <g fill="none" stroke="currentColor" stroke-width="2" stroke-linecap="round" stroke-linejoin="round">
      <circle cx="12" cy="12" r="9" />
      <path d="M12 11v6" />
      <circle cx="12" cy="8" r="1" fill="currentColor" stroke="none" />
    </g>
  </symbol>

  <symbol id="file-plus" viewBox="0 0 24 24">
    <g fill="none" stroke="currentColor" stroke-width="2" stroke-linecap="round" stroke-linejoin="round">
      <path d="M7 3h7l3 3v15a2 2 0 0 1-2 2H7a2 2 0 0 1-2-2V5a2 2 0 0 1 2-2Z" />
      <path d="M14 3v3h3" />
      <path d="M12 11v6" />
      <path d="M9 14h6" />
    </g>
  </symbol>

  <symbol id="folder-plus" viewBox="0 0 24 24">
    <g fill="none" stroke="currentColor" stroke-width="2" stroke-linecap="round" stroke-linejoin="round">
      <path d="M3 7a2 2 0 0 1 2-2h5l2 2h7a2 2 0 0 1 2 2v10a2 2 0 0 1-2 2H5a2 2 0 0 1-2-2V7Z" />
      <path d="M12 12v6" />
      <path d="M9 15h6" />
    </g>
  </symbol>

  <symbol id="trash" viewBox="0 0 24 24">
    <g fill="none" stroke="currentColor" stroke-width="2" stroke-linecap="round" stroke-linejoin="round">
      <path d="M3 6h18" />
      <path d="M8 6V4a2 2 0 0 1 2-2h4a2 2 0 0 1 2 2v2" />
      <path d="M6 6l1 16a2 2 0 0 0 2 2h6a2 2 0 0 0 2-2l1-16" />
      <path d="M10 11v6" />
      <path d="M14 11v6" />
    </g>
  </symbol>

  <symbol id="play" viewBox="0 0 24 24">
    <path fill="currentColor" d="M10 7.5v9l8-4.5-8-4.5Z" />
  </symbol>

  <symbol id="download" viewBox="0 0 24 24">
    <g fill="none" stroke="currentColor" stroke-width="2" stroke-linecap="round" stroke-linejoin="round">
      <path d="M12 3v10" />
      <path d="M7 11l5 5 5-5" />
      <path d="M5 21h14" />
    </g>
  </symbol>

  <symbol id="open" viewBox="0 0 24 24">
    <g fill="none" stroke="currentColor" stroke-width="2" stroke-linecap="round" stroke-linejoin="round">
      <path d="M14 3h7v7" />
      <path d="M10 14L21 3" />
      <path d="M5 7v14h14v-5" />
    </g>
  </symbol>

  <symbol id="image" viewBox="0 0 24 24">
    <g fill="none" stroke="currentColor" stroke-width="2" stroke-linecap="round" stroke-linejoin="round">
      <rect x="3" y="5" width="18" height="14" rx="2" />
      <circle cx="9" cy="10" r="1.3" fill="currentColor" stroke="none" />
      <path d="M21 16l-5-5-4 4-2-2-7 7" />
    </g>
  </symbol>

  <symbol id="save" viewBox="0 0 24 24">
    <g fill="none" stroke="currentColor" stroke-width="2" stroke-linecap="round" stroke-linejoin="round">
      <path d="M17 3H5a2 2 0 0 0-2 2v14a2 2 0 0 0 2 2h14a2 2 0 0 0 2-2V7l-4-4Z" />
      <path d="M17 3v6H7V3" />
      <path d="M7 21v-8h10v8" />
    </g>
  </symbol>

  <symbol id="refresh" viewBox="0 0 24 24">
    <g fill="none" stroke="currentColor" stroke-width="2" stroke-linecap="round" stroke-linejoin="round">
      <path d="M20 12a8 8 0 1 1-2.3-5.7" />
      <path d="M20 4v6h-6" />
    </g>
  </symbol>

  <symbol id="check" viewBox="0 0 24 24">
    <g fill="none" stroke="currentColor" stroke-width="2.4" stroke-linecap="round" stroke-linejoin="round">
      <path d="M20 6L9 17l-5-5" />
    </g>
  </symbol>

  <symbol id="warning" viewBox="0 0 24 24">
    <g fill="none" stroke="currentColor" stroke-width="2" stroke-linecap="round" stroke-linejoin="round">
      <path d="M12 3l10 18H2L12 3Z" />
      <path d="M12 9v5" />
      <circle cx="12" cy="17" r="1" fill="currentColor" stroke="none" />
    </g>
  </symbol>

  <symbol id="error" viewBox="0 0 24 24">
    <g fill="none" stroke="currentColor" stroke-width="2" stroke-linecap="round" stroke-linejoin="round">
      <circle cx="12" cy="12" r="9" />
      <path d="M9 9l6 6" />
      <path d="M15 9l-6 6" />
    </g>
  </symbol>

  <symbol id="close" viewBox="0 0 24 24">
    <g fill="none" stroke="currentColor" stroke-width="2.2" stroke-linecap="round" stroke-linejoin="round">
      <path d="M6 6l12 12" />
      <path d="M18 6L6 18" />
    </g>
  </symbol>
</svg>
